<?xml version="1.0" encoding="utf-8"?>
<!-- Generator: Adobe Illustrator 16.0.0, SVG Export Plug-In . SVG Version: 6.00 Build 0)  -->
<!DOCTYPE svg PUBLIC "-//W3C//DTD SVG 1.1//EN" "http://www.w3.org/Graphics/SVG/1.1/DTD/svg11.dtd">
<svg version="1.1" id="Layer_1" xmlns="http://www.w3.org/2000/svg" xmlns:xlink="http://www.w3.org/1999/xlink" x="0px" y="0px"
	 width="200px" height="200px" viewBox="0 0 200 200" enable-background="new 0 0 200 200" xml:space="preserve">
<rect x="0.221" y="0.198" fill="#871010" width="200" height="200"/>
<g>
	<path fill="#FFFFFF" d="M96.588,137.896c-0.422-33.223-3.691-65.391-7.805-96.82c-0.527-4.008,3.27-5.801,10.969-7.805
		c4.324-1.16,7.383-1.898,9.07-1.898c2.32,0,2.953,1.055,2.742,3.164c-4.957,48.41-6.855,66.34-8.016,103.359
		c-0.105,3.691-1.688,4.746-3.27,4.746C98.381,142.643,96.588,141.166,96.588,137.896z M100.701,156.881
		c6.328,0,10.441,4.43,10.441,10.441c0,5.801-4.219,10.652-10.969,10.652c-6.434,0-10.441-4.43-10.441-10.758
		C89.732,161.1,95.006,156.881,100.701,156.881z"/>
</g>
</svg>
