<?xml version="1.0" encoding="utf-8"?>
<!-- Generator: Adobe Illustrator 16.0.0, SVG Export Plug-In . SVG Version: 6.00 Build 0)  -->
<!DOCTYPE svg PUBLIC "-//W3C//DTD SVG 1.1//EN" "http://www.w3.org/Graphics/SVG/1.1/DTD/svg11.dtd">
<svg version="1.1" id="Layer_1" xmlns="http://www.w3.org/2000/svg" xmlns:xlink="http://www.w3.org/1999/xlink" x="0px" y="0px"
	 width="200px" height="200px" viewBox="0 0 200 200" enable-background="new 0 0 200 200" xml:space="preserve">
<rect x="0.222" y="0.198" fill="#871010" width="200" height="200"/>
<path fill="#FFFFFF" d="M100.221,24.03c-42.067,0-76.168,34.103-76.168,76.168c0,42.068,34.101,76.167,76.168,76.167
	c42.068,0,76.169-34.1,76.169-76.167C176.39,58.133,142.289,24.03,100.221,24.03 M100.221,163.233
	c-34.816,0-63.035-28.219-63.035-63.035c0-17.927,7.494-34.093,19.512-45.574l3.419,4.035
	C49.23,69.173,42.438,83.904,42.438,100.199c0,31.865,25.919,57.783,57.782,57.783c31.862,0,57.783-25.918,57.783-57.783
	c0-30.979-24.511-56.336-55.156-57.716v23.572h-5.253V42.482v-5.253c0.87-0.033,1.744-0.066,2.626-0.066
	c34.814,0,63.036,28.225,63.036,63.036C163.257,135.015,135.035,163.233,100.221,163.233 M71.33,71.307
	c0,0,31.8,18.801,35.391,22.392c3.591,3.591,3.591,9.414,0,13.002c-3.591,3.591-9.408,3.591-13.002,0
	C90.129,103.112,71.33,71.307,71.33,71.307"/>
</svg>
